<mxfile host="Electron" modified="2023-11-09T08:56:40.100Z" agent="Mozilla/5.0 (X11; Linux x86_64) AppleWebKit/537.36 (KHTML, like Gecko) draw.io/22.0.3 Chrome/114.0.5735.289 Electron/25.8.4 Safari/537.36" etag="qqGYERVF2N8BfpPawLNN" version="22.0.3" type="device">
  <diagram name="Page-1" id="VjZ-jLcptMyJi6Kd7Ea1">
    <mxGraphModel dx="2074" dy="2339" grid="1" gridSize="10" guides="1" tooltips="1" connect="1" arrows="1" fold="1" page="1" pageScale="1" pageWidth="850" pageHeight="1100" math="0" shadow="0">
      <root>
        <mxCell id="0" />
        <mxCell id="1" parent="0" />
        <mxCell id="IWgTlU8rN92Ik9p30xoy-18" style="edgeStyle=orthogonalEdgeStyle;shape=connector;rounded=0;orthogonalLoop=1;jettySize=auto;html=1;labelBackgroundColor=default;strokeColor=default;align=center;verticalAlign=middle;fontFamily=Helvetica;fontSize=11;fontColor=default;endArrow=none;endFill=0;" parent="1" source="IWgTlU8rN92Ik9p30xoy-1" target="IWgTlU8rN92Ik9p30xoy-16" edge="1">
          <mxGeometry relative="1" as="geometry" />
        </mxCell>
        <mxCell id="IWgTlU8rN92Ik9p30xoy-22" style="edgeStyle=orthogonalEdgeStyle;shape=connector;rounded=0;orthogonalLoop=1;jettySize=auto;html=1;labelBackgroundColor=default;strokeColor=default;align=center;verticalAlign=middle;fontFamily=Helvetica;fontSize=11;fontColor=default;endArrow=none;endFill=0;" parent="1" source="IWgTlU8rN92Ik9p30xoy-1" target="IWgTlU8rN92Ik9p30xoy-20" edge="1">
          <mxGeometry relative="1" as="geometry" />
        </mxCell>
        <mxCell id="IWgTlU8rN92Ik9p30xoy-25" style="edgeStyle=orthogonalEdgeStyle;shape=connector;rounded=0;orthogonalLoop=1;jettySize=auto;html=1;labelBackgroundColor=default;strokeColor=default;align=center;verticalAlign=middle;fontFamily=Helvetica;fontSize=11;fontColor=default;endArrow=none;endFill=0;" parent="1" source="IWgTlU8rN92Ik9p30xoy-1" target="IWgTlU8rN92Ik9p30xoy-23" edge="1">
          <mxGeometry relative="1" as="geometry" />
        </mxCell>
        <mxCell id="IWgTlU8rN92Ik9p30xoy-28" style="edgeStyle=orthogonalEdgeStyle;shape=connector;rounded=0;orthogonalLoop=1;jettySize=auto;html=1;labelBackgroundColor=default;strokeColor=default;align=center;verticalAlign=middle;fontFamily=Helvetica;fontSize=11;fontColor=default;endArrow=none;endFill=0;exitX=1;exitY=0.25;exitDx=0;exitDy=0;" parent="1" source="IWgTlU8rN92Ik9p30xoy-1" target="IWgTlU8rN92Ik9p30xoy-26" edge="1">
          <mxGeometry relative="1" as="geometry" />
        </mxCell>
        <mxCell id="IWgTlU8rN92Ik9p30xoy-1" value="NavPi Coordinator" style="rounded=0;whiteSpace=wrap;html=1;" parent="1" vertex="1">
          <mxGeometry x="415" y="-20" width="120" height="60" as="geometry" />
        </mxCell>
        <mxCell id="IWgTlU8rN92Ik9p30xoy-7" value="NavPi Node" style="swimlane;whiteSpace=wrap;html=1;" parent="1" vertex="1">
          <mxGeometry x="180" y="-470" width="610" height="260" as="geometry" />
        </mxCell>
        <mxCell id="IWgTlU8rN92Ik9p30xoy-2" value="Global planner component" style="rounded=0;whiteSpace=wrap;html=1;" parent="IWgTlU8rN92Ik9p30xoy-7" vertex="1">
          <mxGeometry x="235" y="180" width="120" height="60" as="geometry" />
        </mxCell>
        <mxCell id="IWgTlU8rN92Ik9p30xoy-3" value="Local planner component" style="rounded=0;whiteSpace=wrap;html=1;" parent="IWgTlU8rN92Ik9p30xoy-7" vertex="1">
          <mxGeometry x="50" y="180" width="120" height="60" as="geometry" />
        </mxCell>
        <mxCell id="IWgTlU8rN92Ik9p30xoy-4" value="Mapping component&lt;br&gt;(vdb_mapping_ros)" style="rounded=0;whiteSpace=wrap;html=1;" parent="IWgTlU8rN92Ik9p30xoy-7" vertex="1">
          <mxGeometry x="235" y="70" width="120" height="60" as="geometry" />
        </mxCell>
        <mxCell id="IWgTlU8rN92Ik9p30xoy-5" value="Global recovery component" style="rounded=0;whiteSpace=wrap;html=1;" parent="IWgTlU8rN92Ik9p30xoy-7" vertex="1">
          <mxGeometry x="440" y="70" width="120" height="60" as="geometry" />
        </mxCell>
        <mxCell id="IWgTlU8rN92Ik9p30xoy-8" value="Local recovery component" style="rounded=0;whiteSpace=wrap;html=1;" parent="IWgTlU8rN92Ik9p30xoy-7" vertex="1">
          <mxGeometry x="440" y="180" width="120" height="60" as="geometry" />
        </mxCell>
        <mxCell id="IWgTlU8rN92Ik9p30xoy-6" value="Status Monitor&lt;br&gt;Component" style="rounded=0;whiteSpace=wrap;html=1;" parent="IWgTlU8rN92Ik9p30xoy-7" vertex="1">
          <mxGeometry x="50" y="70" width="120" height="60" as="geometry" />
        </mxCell>
        <mxCell id="IWgTlU8rN92Ik9p30xoy-10" value="Legend" style="swimlane;whiteSpace=wrap;html=1;" parent="1" vertex="1">
          <mxGeometry x="10" y="180" width="150" height="220" as="geometry" />
        </mxCell>
        <mxCell id="IWgTlU8rN92Ik9p30xoy-11" value="Service" style="shape=parallelogram;perimeter=parallelogramPerimeter;whiteSpace=wrap;html=1;fixedSize=1;fillColor=#d5e8d4;strokeColor=#82b366;movable=1;resizable=1;rotatable=1;deletable=1;editable=1;locked=0;connectable=1;" parent="IWgTlU8rN92Ik9p30xoy-10" vertex="1">
          <mxGeometry x="15" y="100" width="120" height="40" as="geometry" />
        </mxCell>
        <mxCell id="IWgTlU8rN92Ik9p30xoy-12" value="Topic" style="shape=parallelogram;perimeter=parallelogramPerimeter;whiteSpace=wrap;html=1;fixedSize=1;fillColor=#fff2cc;strokeColor=#d6b656;movable=1;resizable=1;rotatable=1;deletable=1;editable=1;locked=0;connectable=1;" parent="IWgTlU8rN92Ik9p30xoy-10" vertex="1">
          <mxGeometry x="15" y="40" width="120" height="40" as="geometry" />
        </mxCell>
        <mxCell id="IWgTlU8rN92Ik9p30xoy-13" value="Action" style="shape=parallelogram;perimeter=parallelogramPerimeter;whiteSpace=wrap;html=1;fixedSize=1;fillColor=#e1d5e7;strokeColor=#9673a6;movable=1;resizable=1;rotatable=1;deletable=1;editable=1;locked=0;connectable=1;" parent="IWgTlU8rN92Ik9p30xoy-10" vertex="1">
          <mxGeometry x="15" y="160" width="120" height="40" as="geometry" />
        </mxCell>
        <mxCell id="IWgTlU8rN92Ik9p30xoy-15" style="edgeStyle=orthogonalEdgeStyle;rounded=0;orthogonalLoop=1;jettySize=auto;html=1;endArrow=classic;endFill=1;" parent="1" source="IWgTlU8rN92Ik9p30xoy-14" target="IWgTlU8rN92Ik9p30xoy-1" edge="1">
          <mxGeometry relative="1" as="geometry" />
        </mxCell>
        <mxCell id="IWgTlU8rN92Ik9p30xoy-14" value="PlanAndExecute" style="shape=parallelogram;perimeter=parallelogramPerimeter;whiteSpace=wrap;html=1;fixedSize=1;fillColor=#e1d5e7;strokeColor=#9673a6;movable=1;resizable=1;rotatable=1;deletable=1;editable=1;locked=0;connectable=1;" parent="1" vertex="1">
          <mxGeometry x="415" y="100" width="120" height="30" as="geometry" />
        </mxCell>
        <mxCell id="IWgTlU8rN92Ik9p30xoy-31" style="edgeStyle=orthogonalEdgeStyle;shape=connector;rounded=0;orthogonalLoop=1;jettySize=auto;html=1;entryX=0.25;entryY=0;entryDx=0;entryDy=0;labelBackgroundColor=default;strokeColor=default;align=center;verticalAlign=middle;fontFamily=Helvetica;fontSize=11;fontColor=default;endArrow=classic;endFill=1;" parent="1" source="IWgTlU8rN92Ik9p30xoy-29" target="IWgTlU8rN92Ik9p30xoy-1" edge="1">
          <mxGeometry relative="1" as="geometry" />
        </mxCell>
        <mxCell id="IWgTlU8rN92Ik9p30xoy-30" style="edgeStyle=orthogonalEdgeStyle;shape=connector;rounded=0;orthogonalLoop=1;jettySize=auto;html=1;labelBackgroundColor=default;strokeColor=default;align=center;verticalAlign=middle;fontFamily=Helvetica;fontSize=11;fontColor=default;endArrow=none;endFill=0;" parent="1" source="IWgTlU8rN92Ik9p30xoy-6" target="IWgTlU8rN92Ik9p30xoy-29" edge="1">
          <mxGeometry relative="1" as="geometry">
            <Array as="points">
              <mxPoint x="290" y="-310" />
              <mxPoint x="380" y="-310" />
            </Array>
          </mxGeometry>
        </mxCell>
        <mxCell id="IWgTlU8rN92Ik9p30xoy-32" value="Twist" style="shape=parallelogram;perimeter=parallelogramPerimeter;whiteSpace=wrap;html=1;fixedSize=1;fillColor=#fff2cc;strokeColor=#d6b656;movable=1;resizable=1;rotatable=1;deletable=1;editable=1;locked=0;connectable=1;" parent="1" vertex="1">
          <mxGeometry x="10" y="-290" width="120" height="30" as="geometry" />
        </mxCell>
        <mxCell id="IWgTlU8rN92Ik9p30xoy-33" value="Pose" style="shape=parallelogram;perimeter=parallelogramPerimeter;whiteSpace=wrap;html=1;fixedSize=1;fillColor=#fff2cc;strokeColor=#d6b656;movable=1;resizable=1;rotatable=1;deletable=1;editable=1;locked=0;connectable=1;" parent="1" vertex="1">
          <mxGeometry x="10" y="-250" width="120" height="30" as="geometry" />
        </mxCell>
        <mxCell id="IWgTlU8rN92Ik9p30xoy-34" style="edgeStyle=orthogonalEdgeStyle;shape=connector;rounded=0;orthogonalLoop=1;jettySize=auto;html=1;labelBackgroundColor=default;strokeColor=default;align=center;verticalAlign=middle;fontFamily=Helvetica;fontSize=11;fontColor=default;endArrow=classic;endFill=1;" parent="1" source="IWgTlU8rN92Ik9p30xoy-3" target="IWgTlU8rN92Ik9p30xoy-32" edge="1">
          <mxGeometry relative="1" as="geometry">
            <Array as="points">
              <mxPoint x="160" y="-260" />
              <mxPoint x="160" y="-265" />
            </Array>
          </mxGeometry>
        </mxCell>
        <mxCell id="IWgTlU8rN92Ik9p30xoy-35" style="edgeStyle=orthogonalEdgeStyle;shape=connector;rounded=0;orthogonalLoop=1;jettySize=auto;html=1;labelBackgroundColor=default;strokeColor=default;align=center;verticalAlign=middle;fontFamily=Helvetica;fontSize=11;fontColor=default;endArrow=classic;endFill=1;" parent="1" source="IWgTlU8rN92Ik9p30xoy-3" target="IWgTlU8rN92Ik9p30xoy-33" edge="1">
          <mxGeometry relative="1" as="geometry">
            <Array as="points">
              <mxPoint x="160" y="-260" />
              <mxPoint x="160" y="-225" />
            </Array>
          </mxGeometry>
        </mxCell>
        <mxCell id="IWgTlU8rN92Ik9p30xoy-16" value="ExecutePlan" style="shape=parallelogram;perimeter=parallelogramPerimeter;whiteSpace=wrap;html=1;fixedSize=1;fillColor=#e1d5e7;strokeColor=#9673a6;movable=1;resizable=1;rotatable=1;deletable=1;editable=1;locked=0;connectable=1;" parent="1" vertex="1">
          <mxGeometry x="230" y="-150" width="120" height="30" as="geometry" />
        </mxCell>
        <mxCell id="IWgTlU8rN92Ik9p30xoy-19" style="edgeStyle=orthogonalEdgeStyle;shape=connector;rounded=0;orthogonalLoop=1;jettySize=auto;html=1;labelBackgroundColor=default;strokeColor=default;align=center;verticalAlign=middle;fontFamily=Helvetica;fontSize=11;fontColor=default;endArrow=classic;endFill=1;" parent="1" source="IWgTlU8rN92Ik9p30xoy-16" target="IWgTlU8rN92Ik9p30xoy-3" edge="1">
          <mxGeometry relative="1" as="geometry" />
        </mxCell>
        <mxCell id="IWgTlU8rN92Ik9p30xoy-29" value="ExecutionStatus" style="shape=parallelogram;perimeter=parallelogramPerimeter;whiteSpace=wrap;html=1;fixedSize=1;fillColor=#fff2cc;strokeColor=#d6b656;movable=1;resizable=1;rotatable=1;deletable=1;editable=1;locked=0;connectable=1;" parent="1" vertex="1">
          <mxGeometry x="320" y="-100" width="120" height="30" as="geometry" />
        </mxCell>
        <mxCell id="IWgTlU8rN92Ik9p30xoy-20" value="GetPlan" style="shape=parallelogram;perimeter=parallelogramPerimeter;whiteSpace=wrap;html=1;fixedSize=1;fillColor=#e1d5e7;strokeColor=#9673a6;movable=1;resizable=1;rotatable=1;deletable=1;editable=1;locked=0;connectable=1;" parent="1" vertex="1">
          <mxGeometry x="415" y="-150" width="120" height="30" as="geometry" />
        </mxCell>
        <mxCell id="IWgTlU8rN92Ik9p30xoy-26" value="Recover" style="shape=parallelogram;perimeter=parallelogramPerimeter;whiteSpace=wrap;html=1;fixedSize=1;fillColor=#e1d5e7;strokeColor=#9673a6;movable=1;resizable=1;rotatable=1;deletable=1;editable=1;locked=0;connectable=1;" parent="1" vertex="1">
          <mxGeometry x="535" y="-200" width="120" height="30" as="geometry" />
        </mxCell>
        <mxCell id="IWgTlU8rN92Ik9p30xoy-23" value="Recover" style="shape=parallelogram;perimeter=parallelogramPerimeter;whiteSpace=wrap;html=1;fixedSize=1;fillColor=#e1d5e7;strokeColor=#9673a6;movable=1;resizable=1;rotatable=1;deletable=1;editable=1;locked=0;connectable=1;" parent="1" vertex="1">
          <mxGeometry x="620" y="-160" width="120" height="30" as="geometry" />
        </mxCell>
        <mxCell id="IWgTlU8rN92Ik9p30xoy-21" style="edgeStyle=orthogonalEdgeStyle;shape=connector;rounded=0;orthogonalLoop=1;jettySize=auto;html=1;labelBackgroundColor=default;strokeColor=default;align=center;verticalAlign=middle;fontFamily=Helvetica;fontSize=11;fontColor=default;endArrow=classic;endFill=1;" parent="1" source="IWgTlU8rN92Ik9p30xoy-20" target="IWgTlU8rN92Ik9p30xoy-2" edge="1">
          <mxGeometry relative="1" as="geometry" />
        </mxCell>
        <mxCell id="IWgTlU8rN92Ik9p30xoy-27" style="edgeStyle=orthogonalEdgeStyle;shape=connector;rounded=0;orthogonalLoop=1;jettySize=auto;html=1;labelBackgroundColor=default;strokeColor=default;align=center;verticalAlign=middle;fontFamily=Helvetica;fontSize=11;fontColor=default;endArrow=classic;endFill=1;" parent="1" source="IWgTlU8rN92Ik9p30xoy-26" target="IWgTlU8rN92Ik9p30xoy-5" edge="1">
          <mxGeometry relative="1" as="geometry">
            <Array as="points">
              <mxPoint x="595" y="-310" />
              <mxPoint x="680" y="-310" />
            </Array>
          </mxGeometry>
        </mxCell>
        <mxCell id="IWgTlU8rN92Ik9p30xoy-24" style="edgeStyle=orthogonalEdgeStyle;shape=connector;rounded=0;orthogonalLoop=1;jettySize=auto;html=1;labelBackgroundColor=default;strokeColor=default;align=center;verticalAlign=middle;fontFamily=Helvetica;fontSize=11;fontColor=default;endArrow=classic;endFill=1;" parent="1" source="IWgTlU8rN92Ik9p30xoy-23" target="IWgTlU8rN92Ik9p30xoy-8" edge="1">
          <mxGeometry relative="1" as="geometry" />
        </mxCell>
      </root>
    </mxGraphModel>
  </diagram>
</mxfile>
